<svg preserveAspectRatio="none" width="100%" height="100%" overflow="visible" style="display: block;" viewBox="0 0 180.617 45.853" fill="none" xmlns="http://www.w3.org/2000/svg">
<g id="Group 2085663803">
<path id="Exclude" d="M79.6131 0.00548165C83.6206 -0.185149 82.7227 4.85186 82.7185 7.5172L82.7166 18.6461C84.5067 16.7707 86.7085 15.4616 89.2517 14.9244C103.896 11.8307 114.491 28.1927 104.894 40.1783C97.7975 48.6633 83.9024 47.4975 78.7391 37.5895C77.834 35.8921 77.2645 34.0355 77.0613 32.1227C76.8111 29.899 76.8996 27.4161 76.9109 25.1705C76.9473 17.9265 76.8875 10.6816 76.9178 3.4381C76.9261 1.42639 77.3306 0.860222 79.0848 0.0484504C79.2602 0.0285318 79.4368 0.0146334 79.6131 0.00548165ZM102.601 29.0514C101.976 23.5724 97.0203 19.6442 91.5437 20.2858C86.0885 20.9249 82.1799 25.8578 82.8035 31.3151C83.4274 36.772 88.3477 40.6958 93.8055 40.0875C99.2862 39.4767 103.227 34.5303 102.601 29.0514Z" fill="var(--fill-0, #D1FAE5)"/>
<path id="Vector" d="M45.7024 14.602C49.6948 14.4209 54.1744 14.6472 58.244 14.5668C61.145 14.6377 63.8259 14.405 66.7341 14.6775C69.8267 14.9673 71.6974 18.6915 70.2706 21.2819C69.4659 22.7428 66.2722 25.3278 64.9341 26.5463C61.8372 29.3598 58.7592 32.194 55.7002 35.0486C54.9255 35.7662 51.2852 38.8882 51.1744 39.5169C52.0331 40.2596 55.1213 40.0136 56.3629 40.0084L64.2006 40.0019C66.3225 39.9966 69.0772 39.8701 71.0924 40.2881C73.2154 42.4016 72.8257 44.5489 70.0597 45.6504C63.9858 45.8482 57.7894 45.533 51.6995 45.6708C49.0949 45.7298 45.9563 45.9564 44.3171 43.4323C43.5394 42.2349 43.0704 40.6897 43.6482 39.2739C44.61 37.2624 47.9827 34.5222 49.5847 33.0464L57.9097 25.3852C58.7502 24.6189 62.7668 21.1851 62.8665 20.5189C61.5816 20.0403 51.3531 20.3913 49.2903 20.3017C48.3754 20.262 46.6878 20.4232 45.7016 20.1916C44.8654 19.9952 44.1014 19.4845 43.691 18.7217C43.3533 18.0975 43.292 17.3605 43.5218 16.689C43.9044 15.572 44.698 15.077 45.7024 14.602Z" fill="var(--fill-0, #D1FAE5)"/>
<path id="Vector_2" d="M13.8272 14.6061C20.4128 14.3836 27.1611 14.6567 33.757 14.6171C36.8525 14.5986 39.5352 17.9514 38.2747 20.7499C37.4951 22.4808 34.0264 25.3356 32.4995 26.7519L23.6788 34.966C22.9103 35.679 19.2355 38.7874 19.1593 39.4793C19.8617 40.3024 23.1279 40.0178 24.2145 40.0136L32.1377 39.9975C34.2611 39.9963 36.3176 39.898 38.4074 40.2681C40.1715 42.4773 40.1878 44.1866 37.5456 45.6037C36.88 45.712 35.0659 45.674 34.2902 45.6744L28.35 45.6743L20.267 45.6697C18.2793 45.6682 16.2966 45.9409 14.4079 45.1174C12.2084 44.5952 10.7183 40.3788 12.0227 38.6052C13.7606 36.2427 17.8981 32.7279 20.122 30.673L27.6777 23.6361C28.2422 23.1132 30.5303 21.102 30.7744 20.6219C29.6641 19.7115 15.3288 20.8605 13.2888 20.0409C10.4294 18.892 11.3223 15.7296 13.8272 14.6061Z" fill="var(--fill-0, #D1FAE5)"/>
<path id="Vector_3" d="M126.691 14.594C130.747 14.4363 135.216 14.6603 139.323 14.5667C141.356 14.5204 144.084 14.5382 146.101 14.6479C147.319 14.8639 148.62 15.5687 149.279 16.5938C151.831 20.5675 147.658 23.4213 145.179 25.8209L136.071 34.6474C135.259 35.4336 131.533 38.7837 131.374 39.5613C132.413 40.6544 147.029 39.4457 149.285 40.2912C151.226 41.0192 151.056 42.8778 150.428 44.4781C149.734 45.0862 149.372 45.3424 148.52 45.6606C144.73 45.7428 140.798 45.6168 136.987 45.6728C134.344 45.6465 131.68 45.7458 129.04 45.6295C127.573 45.5387 126.216 44.7906 125.265 43.7145C123.999 42.283 123.934 39.4463 125.078 37.9493C125.85 36.9375 127.177 35.7627 128.108 34.8331C129.439 33.5032 130.82 32.1777 132.172 30.8554L138.618 24.5548C140 23.2061 141.648 21.5294 143.127 20.3384C139.848 20.2186 127.702 20.6906 125.67 19.9017C125.102 19.6814 124.716 19.3166 124.489 18.742C124.076 17.7017 124.327 16.6454 124.74 15.6596C125.463 15.0615 125.813 14.8771 126.691 14.594Z" fill="var(--fill-0, #D1FAE5)"/>
<path id="Vector_4" d="M156.297 14.5943C159.19 14.4374 162.948 14.5888 165.992 14.5681C168.121 14.9706 174.772 13.9844 176.542 14.8048C184.589 18.5344 176.211 24.4379 174.624 26.1961C172.436 28.6205 161.492 38.3867 161.109 39.5573C162.698 40.6448 176.082 39.4393 179.492 40.3469C181.401 42.53 180.817 44.5979 178.219 45.6688L165.318 45.6755C163.594 45.6768 160.236 45.7742 158.653 45.6122C157.239 45.4773 155.94 44.7671 155.064 43.6479C152.016 39.781 155.911 36.8567 158.489 34.3458L164.217 28.776L169.551 23.5765C170.605 22.5491 171.883 21.2115 173.019 20.336C167.569 20.0697 161.634 20.556 156.177 20.1469C155.599 20.1034 154.583 19.1804 154.308 18.6261C153.359 16.7134 154.678 15.3695 156.297 14.5943Z" fill="var(--fill-0, #D1FAE5)"/>
<path id="Vector_5" d="M2.66574 15.1313C3.37394 15.0449 4.18254 15.0181 4.84997 15.3068C5.53597 15.6035 6.00439 16.217 6.27796 16.8965C6.68245 17.9014 6.59714 40.4778 6.4646 42.8382C6.44333 43.2167 6.37027 43.5546 6.21727 43.9013C5.78505 44.8798 5.01791 45.2809 4.07758 45.6592C3.51066 45.7051 3.04588 45.7072 2.51314 45.4842C1.68356 45.1367 1.06941 44.4471 0.757494 43.607C0.390405 42.6185 0.45661 20.6715 0.58754 18.025C0.610012 17.5724 0.652668 17.1124 0.854782 16.6999C1.24246 15.9084 1.83683 15.4023 2.66574 15.1313Z" fill="var(--fill-0, #D1FAE5)"/>
<path id="Vector_6" d="M115.308 15.1146C117.407 14.8223 119.058 15.6434 119.043 17.9992C118.988 26.636 119.283 35.3481 118.917 43.9672C118.894 44.5274 117.393 45.3625 116.943 45.6055C112.67 46.2655 113.209 41.8403 113.211 39.1076L113.221 32.4397C113.226 27.8757 113.02 21.4545 113.269 17.0627C113.794 16.1249 114.292 15.4628 115.308 15.1146Z" fill="var(--fill-0, #D1FAE5)"/>
<path id="Vector_7" d="M115.313 3.78574C117.217 3.25735 119.192 4.35543 119.748 6.25133C120.304 8.14723 119.234 10.138 117.346 10.7212C116.502 10.9821 115.59 10.9243 114.785 10.5586C113.402 9.93008 112.56 8.50267 112.678 6.98724C112.795 5.47181 113.849 4.19232 115.313 3.78574Z" fill="var(--fill-0, #D1FAE5)"/>
<path id="Vector_8" d="M2.56363 3.82327C3.50126 3.54091 4.51345 3.65248 5.36712 4.13241C5.96418 4.46807 6.45318 4.96698 6.77681 5.57086C7.36431 6.66692 7.34507 7.98855 6.72581 9.06711C6.27623 9.85 5.54905 10.4356 4.68825 10.7078C3.92366 10.9498 3.10013 10.9295 2.34819 10.6502C0.897464 10.1115 -0.0470377 8.70615 0.00180878 7.15923C0.0506553 5.61231 1.08195 4.26942 2.56363 3.82327Z" fill="var(--fill-0, #D1FAE5)"/>
</g>
</svg>
