<svg viewBox="0 0 200 200" fill="none" xmlns="http://www.w3.org/2000/svg">
  <!-- Body -->
  <ellipse cx="100" cy="130" rx="50" ry="55" fill="#C4956A"/>
  <!-- Belly -->
  <ellipse cx="100" cy="140" rx="32" ry="38" fill="#E8C9A0"/>
  <!-- Head -->
  <ellipse cx="100" cy="78" rx="42" ry="38" fill="#C4956A"/>
  <!-- Face mask -->
  <ellipse cx="100" cy="85" rx="28" ry="22" fill="#E8C9A0"/>
  <!-- Eyes -->
  <circle cx="88" cy="78" r="10" fill="#3D2B1A"/>
  <circle cx="112" cy="78" r="10" fill="#3D2B1A"/>
  <circle cx="88" cy="78" r="7" fill="#F5F0E8"/>
  <circle cx="112" cy="78" r="7" fill="#F5F0E8"/>
  <circle cx="89" cy="77" r="4" fill="#1A1A1A"/>
  <circle cx="113" cy="77" r="4" fill="#1A1A1A"/>
  <!-- Eye shine -->
  <circle cx="91" cy="75" r="1.5" fill="white"/>
  <circle cx="115" cy="75" r="1.5" fill="white"/>
  <!-- Nose -->
  <ellipse cx="100" cy="90" rx="6" ry="4" fill="#3D2B1A"/>
  <!-- Smile -->
  <path d="M88 97 Q100 106 112 97" stroke="#3D2B1A" stroke-width="2.5" stroke-linecap="round" fill="none"/>
  <!-- Ear left -->
  <circle cx="60" cy="58" r="14" fill="#C4956A"/>
  <circle cx="60" cy="58" r="8" fill="#D4A574"/>
  <!-- Ear right -->
  <circle cx="140" cy="58" r="14" fill="#C4956A"/>
  <circle cx="140" cy="58" r="8" fill="#D4A574"/>
  <!-- Arms -->
  <ellipse cx="55" cy="130" rx="14" ry="35" fill="#C4956A" transform="rotate(-15 55 130)"/>
  <ellipse cx="145" cy="130" rx="14" ry="35" fill="#C4956A" transform="rotate(15 145 130)"/>
  <!-- Claws left -->
  <path d="M40 158 Q36 165 34 170" stroke="#3D2B1A" stroke-width="2" stroke-linecap="round" fill="none"/>
  <path d="M44 161 Q42 169 41 174" stroke="#3D2B1A" stroke-width="2" stroke-linecap="round" fill="none"/>
  <path d="M49 162 Q49 170 49 175" stroke="#3D2B1A" stroke-width="2" stroke-linecap="round" fill="none"/>
  <!-- Claws right -->
  <path d="M160 158 Q164 165 166 170" stroke="#3D2B1A" stroke-width="2" stroke-linecap="round" fill="none"/>
  <path d="M156 161 Q158 169 159 174" stroke="#3D2B1A" stroke-width="2" stroke-linecap="round" fill="none"/>
  <path d="M151 162 Q151 170 151 175" stroke="#3D2B1A" stroke-width="2" stroke-linecap="round" fill="none"/>
  <!-- Green leaf accent -->
  <path d="M95 48 Q85 35 70 38 Q80 52 95 48Z" fill="#047857"/>
  <path d="M105 44 Q115 30 132 33 Q120 47 105 44Z" fill="#059669"/>
  <path d="M100 48 L100 38" stroke="#047857" stroke-width="1.5"/>
</svg>
